<svg width="496" height="201" viewBox="0 0 496 201" fill="none" xmlns="http://www.w3.org/2000/svg">
<g filter="url(#filter0_d_22_380)">
<rect x="72" y="33" width="352" height="58" rx="20.9968" fill="black"/>
<path d="M123.518 68.2619C123.105 69.1703 122.616 70.0064 122.05 70.7752C121.278 71.8231 120.646 72.5486 120.159 72.9514C119.404 73.6126 118.595 73.9512 117.728 73.9705C117.106 73.9705 116.356 73.802 115.483 73.4601C114.607 73.1199 113.802 72.9514 113.066 72.9514C112.294 72.9514 111.466 73.1199 110.581 73.4601C109.694 73.802 108.98 73.9801 108.433 73.9978C107.603 74.0315 106.774 73.6832 105.948 72.9514C105.42 72.5132 104.76 71.7622 103.97 70.6981C103.122 69.5619 102.425 68.2442 101.878 66.7421C101.293 65.1195 101 63.5483 101 62.0272C101 60.2848 101.395 58.782 102.187 57.5226C102.81 56.5111 103.638 55.7131 104.674 55.1273C105.711 54.5415 106.831 54.243 108.037 54.2239C108.696 54.2239 109.562 54.4183 110.637 54.8002C111.709 55.1835 112.398 55.3778 112.7 55.3778C112.925 55.3778 113.69 55.1506 114.987 54.6975C116.213 54.2774 117.248 54.1034 118.096 54.1719C120.393 54.3485 122.119 55.2108 123.267 56.7643C121.212 57.9497 120.196 59.6099 120.216 61.7398C120.235 63.3988 120.867 64.7793 122.109 65.8754C122.672 66.3842 123.301 66.7774 124 67.0566C123.848 67.4755 123.688 67.8767 123.518 68.2619ZM118.249 48.5201C118.249 49.8204 117.75 51.0345 116.756 52.1583C115.556 53.4942 114.104 54.2661 112.53 54.1443C112.51 53.9883 112.498 53.8241 112.498 53.6516C112.498 52.4033 113.069 51.0674 114.083 49.9751C114.589 49.4221 115.232 48.9622 116.013 48.5954C116.791 48.2341 117.528 48.0342 118.221 48C118.241 48.1738 118.249 48.3477 118.249 48.5201V48.5201Z" fill="white"/>
<path d="M164.679 59.1847H162.463C162.378 58.7112 162.219 58.2945 161.987 57.9347C161.755 57.5748 161.471 57.2694 161.135 57.0185C160.799 56.7675 160.422 56.5781 160.006 56.4503C159.594 56.3224 159.156 56.2585 158.692 56.2585C157.854 56.2585 157.103 56.4692 156.44 56.8906C155.782 57.312 155.261 57.9299 154.878 58.7443C154.499 59.5587 154.31 60.553 154.31 61.7273C154.31 62.911 154.499 63.91 154.878 64.7244C155.261 65.5388 155.785 66.1544 156.447 66.571C157.11 66.9877 157.856 67.196 158.685 67.196C159.144 67.196 159.58 67.1345 159.991 67.0114C160.408 66.8835 160.785 66.6965 161.121 66.4503C161.457 66.2041 161.741 65.9034 161.973 65.5483C162.21 65.1884 162.373 64.7765 162.463 64.3125L164.679 64.3196C164.561 65.0346 164.331 65.6927 163.99 66.294C163.654 66.8906 163.221 67.4067 162.69 67.8423C162.165 68.2732 161.563 68.607 160.886 68.8438C160.209 69.0805 159.471 69.1989 158.67 69.1989C157.411 69.1989 156.289 68.9006 155.304 68.304C154.319 67.7027 153.543 66.8433 152.974 65.7259C152.411 64.6084 152.129 63.2756 152.129 61.7273C152.129 60.1742 152.413 58.8414 152.982 57.7287C153.55 56.6113 154.326 55.7543 155.311 55.1577C156.296 54.5563 157.416 54.2557 158.67 54.2557C159.442 54.2557 160.162 54.367 160.83 54.5895C161.502 54.8073 162.106 55.1293 162.641 55.5554C163.176 55.9768 163.618 56.4929 163.969 57.1037C164.319 57.7098 164.556 58.4034 164.679 59.1847ZM171.73 69.2202C170.707 69.2202 169.815 68.9858 169.052 68.517C168.29 68.0483 167.698 67.3925 167.277 66.5497C166.855 65.7069 166.645 64.7221 166.645 63.5952C166.645 62.4635 166.855 61.474 167.277 60.6264C167.698 59.7789 168.29 59.1207 169.052 58.652C169.815 58.1832 170.707 57.9489 171.73 57.9489C172.752 57.9489 173.645 58.1832 174.407 58.652C175.17 59.1207 175.761 59.7789 176.183 60.6264C176.604 61.474 176.815 62.4635 176.815 63.5952C176.815 64.7221 176.604 65.7069 176.183 66.5497C175.761 67.3925 175.17 68.0483 174.407 68.517C173.645 68.9858 172.752 69.2202 171.73 69.2202ZM171.737 67.4375C172.4 67.4375 172.949 67.2623 173.385 66.9119C173.82 66.5616 174.142 66.0952 174.35 65.5128C174.564 64.9304 174.67 64.2888 174.67 63.5881C174.67 62.892 174.564 62.2528 174.35 61.6705C174.142 61.0833 173.82 60.6122 173.385 60.2571C172.949 59.902 172.4 59.7244 171.737 59.7244C171.069 59.7244 170.515 59.902 170.075 60.2571C169.639 60.6122 169.315 61.0833 169.102 61.6705C168.894 62.2528 168.789 62.892 168.789 63.5881C168.789 64.2888 168.894 64.9304 169.102 65.5128C169.315 66.0952 169.639 66.5616 170.075 66.9119C170.515 67.2623 171.069 67.4375 171.737 67.4375ZM181.309 62.5227V69H179.185V58.0909H181.224V59.8665H181.359C181.61 59.2888 182.003 58.8248 182.538 58.4744C183.077 58.1241 183.757 57.9489 184.576 57.9489C185.319 57.9489 185.97 58.1051 186.529 58.4176C187.088 58.7254 187.521 59.1847 187.829 59.7955C188.137 60.4062 188.29 61.1615 188.29 62.0611V69H186.167V62.3168C186.167 61.526 185.961 60.9081 185.549 60.4631C185.137 60.0133 184.571 59.7884 183.852 59.7884C183.359 59.7884 182.921 59.8949 182.538 60.108C182.159 60.321 181.858 60.6335 181.636 61.0455C181.418 61.4527 181.309 61.9451 181.309 62.5227ZM196.231 58.0909V59.7955H190.272V58.0909H196.231ZM191.87 55.4773H193.994V65.7969C193.994 66.2088 194.055 66.5189 194.178 66.7273C194.301 66.9309 194.46 67.0705 194.654 67.1463C194.853 67.2173 195.068 67.2528 195.3 67.2528C195.471 67.2528 195.62 67.241 195.748 67.2173C195.876 67.1937 195.975 67.1747 196.046 67.1605L196.43 68.9148C196.307 68.9621 196.131 69.0095 195.904 69.0568C195.677 69.1089 195.393 69.1373 195.052 69.142C194.493 69.1515 193.972 69.0521 193.489 68.8438C193.006 68.6354 192.616 68.3134 192.317 67.8778C192.019 67.4422 191.87 66.8954 191.87 66.2372V55.4773ZM198.58 69V58.0909H200.703V69H198.58ZM199.652 56.4077C199.283 56.4077 198.966 56.2846 198.701 56.0384C198.44 55.7874 198.31 55.4891 198.31 55.1435C198.31 54.7931 198.44 54.4948 198.701 54.2486C198.966 53.9976 199.283 53.8722 199.652 53.8722C200.022 53.8722 200.337 53.9976 200.597 54.2486C200.862 54.4948 200.995 54.7931 200.995 55.1435C200.995 55.4891 200.862 55.7874 200.597 56.0384C200.337 56.2846 200.022 56.4077 199.652 56.4077ZM205.684 62.5227V69H203.56V58.0909H205.599V59.8665H205.734C205.985 59.2888 206.378 58.8248 206.913 58.4744C207.452 58.1241 208.132 57.9489 208.951 57.9489C209.694 57.9489 210.345 58.1051 210.904 58.4176C211.463 58.7254 211.896 59.1847 212.204 59.7955C212.512 60.4062 212.665 61.1615 212.665 62.0611V69H210.542V62.3168C210.542 61.526 210.336 60.9081 209.924 60.4631C209.512 60.0133 208.946 59.7884 208.227 59.7884C207.734 59.7884 207.296 59.8949 206.913 60.108C206.534 60.321 206.233 60.6335 206.011 61.0455C205.793 61.4527 205.684 61.9451 205.684 62.5227ZM222.424 64.4759V58.0909H224.555V69H222.467V67.1108H222.353C222.102 67.6932 221.7 68.1785 221.146 68.5668C220.596 68.9503 219.912 69.142 219.093 69.142C218.392 69.142 217.772 68.9882 217.232 68.6804C216.697 68.3679 216.276 67.9062 215.968 67.2955C215.665 66.6847 215.513 65.9295 215.513 65.0298V58.0909H217.637V64.7741C217.637 65.5175 217.843 66.1094 218.255 66.5497C218.667 66.9901 219.202 67.2102 219.86 67.2102C220.258 67.2102 220.653 67.1108 221.046 66.9119C221.444 66.7131 221.773 66.4124 222.033 66.0099C222.299 65.6075 222.429 65.0961 222.424 64.4759ZM232.11 69.2202C231.035 69.2202 230.109 68.9905 229.333 68.5312C228.561 68.0672 227.964 67.4162 227.543 66.5781C227.126 65.7353 226.918 64.7481 226.918 63.6165C226.918 62.4991 227.126 61.5142 227.543 60.6619C227.964 59.8097 228.551 59.1444 229.304 58.6662C230.062 58.188 230.947 57.9489 231.961 57.9489C232.576 57.9489 233.173 58.0507 233.75 58.2543C234.328 58.4579 234.846 58.7775 235.306 59.2131C235.765 59.6487 236.127 60.2145 236.392 60.9105C236.658 61.6018 236.79 62.4422 236.79 63.4318V64.1847H228.118V62.5938H234.709C234.709 62.035 234.596 61.5402 234.368 61.1094C234.141 60.6738 233.821 60.3305 233.409 60.0795C233.002 59.8286 232.524 59.7031 231.975 59.7031C231.378 59.7031 230.857 59.8499 230.412 60.1435C229.972 60.4323 229.631 60.8111 229.39 61.2798C229.153 61.7438 229.034 62.2481 229.034 62.7926V64.0355C229.034 64.7647 229.162 65.3849 229.418 65.8963C229.678 66.4077 230.041 66.7983 230.505 67.0682C230.969 67.3333 231.511 67.4659 232.131 67.4659C232.533 67.4659 232.9 67.4091 233.232 67.2955C233.563 67.1771 233.85 67.0019 234.091 66.7699C234.333 66.5379 234.517 66.2514 234.645 65.9105L236.655 66.2727C236.494 66.8646 236.205 67.383 235.789 67.8281C235.377 68.2685 234.858 68.6117 234.233 68.858C233.613 69.0994 232.905 69.2202 232.11 69.2202ZM246.804 69L243.594 58.0909H245.789L247.926 66.1023H248.033L250.178 58.0909H252.373L254.503 66.0668H254.61L256.733 58.0909H258.928L255.725 69H253.559L251.343 61.1236H251.179L248.963 69H246.804ZM260.943 69V58.0909H263.067V69H260.943ZM262.016 56.4077C261.646 56.4077 261.329 56.2846 261.064 56.0384C260.804 55.7874 260.673 55.4891 260.673 55.1435C260.673 54.7931 260.804 54.4948 261.064 54.2486C261.329 53.9976 261.646 53.8722 262.016 53.8722C262.385 53.8722 262.7 53.9976 262.96 54.2486C263.225 54.4948 263.358 54.7931 263.358 55.1435C263.358 55.4891 263.225 55.7874 262.96 56.0384C262.7 56.2846 262.385 56.4077 262.016 56.4077ZM271.016 58.0909V59.7955H265.057V58.0909H271.016ZM266.655 55.4773H268.779V65.7969C268.779 66.2088 268.84 66.5189 268.963 66.7273C269.087 66.9309 269.245 67.0705 269.439 67.1463C269.638 67.2173 269.854 67.2528 270.086 67.2528C270.256 67.2528 270.405 67.241 270.533 67.2173C270.661 67.1937 270.76 67.1747 270.831 67.1605L271.215 68.9148C271.092 68.9621 270.917 69.0095 270.689 69.0568C270.462 69.1089 270.178 69.1373 269.837 69.142C269.278 69.1515 268.757 69.0521 268.275 68.8438C267.792 68.6354 267.401 68.3134 267.103 67.8778C266.804 67.4422 266.655 66.8954 266.655 66.2372V55.4773ZM275.723 62.5227V69H273.599V54.4545H275.695V59.8665H275.83C276.085 59.2794 276.476 58.813 277.001 58.4673C277.527 58.1217 278.214 57.9489 279.061 57.9489C279.809 57.9489 280.463 58.1027 281.021 58.4105C281.585 58.7183 282.02 59.1776 282.328 59.7884C282.641 60.3944 282.797 61.152 282.797 62.0611V69H280.673V62.3168C280.673 61.5166 280.467 60.8963 280.055 60.456C279.643 60.0109 279.071 59.7884 278.337 59.7884C277.835 59.7884 277.385 59.8949 276.987 60.108C276.594 60.321 276.284 60.6335 276.057 61.0455C275.834 61.4527 275.723 61.9451 275.723 62.5227ZM292.323 69H289.993L295.228 54.4545H297.763L302.998 69H300.668L296.556 57.0966H296.442L292.323 69ZM292.713 63.304H300.27V65.1506H292.713V63.304ZM304.928 73.0909V58.0909H307.001V59.8594H307.179C307.302 59.6321 307.48 59.3693 307.712 59.071C307.944 58.7727 308.266 58.5123 308.678 58.2898C309.089 58.0625 309.634 57.9489 310.311 57.9489C311.192 57.9489 311.978 58.1714 312.669 58.6165C313.36 59.0616 313.902 59.7031 314.295 60.5412C314.693 61.3793 314.892 62.3878 314.892 63.5668C314.892 64.7457 314.696 65.7566 314.303 66.5994C313.91 67.4375 313.37 68.0838 312.683 68.5384C311.997 68.9882 311.213 69.2131 310.332 69.2131C309.67 69.2131 309.127 69.1018 308.706 68.8793C308.289 68.6567 307.963 68.3963 307.726 68.098C307.489 67.7997 307.307 67.5346 307.179 67.3026H307.051V73.0909H304.928ZM307.009 63.5455C307.009 64.3125 307.12 64.9848 307.342 65.5625C307.565 66.1402 307.887 66.5923 308.308 66.919C308.73 67.241 309.246 67.402 309.857 67.402C310.491 67.402 311.021 67.2339 311.447 66.8977C311.874 66.5568 312.196 66.0952 312.413 65.5128C312.636 64.9304 312.747 64.2746 312.747 63.5455C312.747 62.8258 312.638 62.1795 312.42 61.6065C312.207 61.0336 311.885 60.5814 311.455 60.25C311.028 59.9186 310.496 59.7528 309.857 59.7528C309.241 59.7528 308.72 59.9115 308.294 60.2287C307.873 60.5459 307.553 60.9886 307.335 61.5568C307.117 62.125 307.009 62.7879 307.009 63.5455ZM317.271 73.0909V58.0909H319.345V59.8594H319.523C319.646 59.6321 319.823 59.3693 320.055 59.071C320.287 58.7727 320.609 58.5123 321.021 58.2898C321.433 58.0625 321.978 57.9489 322.655 57.9489C323.536 57.9489 324.321 58.1714 325.013 58.6165C325.704 59.0616 326.246 59.7031 326.639 60.5412C327.037 61.3793 327.236 62.3878 327.236 63.5668C327.236 64.7457 327.039 65.7566 326.646 66.5994C326.253 67.4375 325.714 68.0838 325.027 68.5384C324.34 68.9882 323.557 69.2131 322.676 69.2131C322.013 69.2131 321.471 69.1018 321.05 68.8793C320.633 68.6567 320.306 68.3963 320.07 68.098C319.833 67.7997 319.651 67.5346 319.523 67.3026H319.395V73.0909H317.271ZM319.352 63.5455C319.352 64.3125 319.464 64.9848 319.686 65.5625C319.909 66.1402 320.231 66.5923 320.652 66.919C321.073 67.241 321.589 67.402 322.2 67.402C322.835 67.402 323.365 67.2339 323.791 66.8977C324.217 66.5568 324.539 66.0952 324.757 65.5128C324.98 64.9304 325.091 64.2746 325.091 63.5455C325.091 62.8258 324.982 62.1795 324.764 61.6065C324.551 61.0336 324.229 60.5814 323.798 60.25C323.372 59.9186 322.839 59.7528 322.2 59.7528C321.585 59.7528 321.064 59.9115 320.638 60.2287C320.216 60.5459 319.897 60.9886 319.679 61.5568C319.461 62.125 319.352 62.7879 319.352 63.5455ZM331.739 54.4545V69H329.615V54.4545H331.739ZM339.297 69.2202C338.222 69.2202 337.297 68.9905 336.52 68.5312C335.748 68.0672 335.152 67.4162 334.73 66.5781C334.314 65.7353 334.105 64.7481 334.105 63.6165C334.105 62.4991 334.314 61.5142 334.73 60.6619C335.152 59.8097 335.739 59.1444 336.492 58.6662C337.249 58.188 338.135 57.9489 339.148 57.9489C339.764 57.9489 340.36 58.0507 340.938 58.2543C341.516 58.4579 342.034 58.7775 342.493 59.2131C342.953 59.6487 343.315 60.2145 343.58 60.9105C343.845 61.6018 343.978 62.4422 343.978 63.4318V64.1847H335.306V62.5938H341.897C341.897 62.035 341.783 61.5402 341.556 61.1094C341.328 60.6738 341.009 60.3305 340.597 60.0795C340.19 59.8286 339.712 59.7031 339.162 59.7031C338.566 59.7031 338.045 59.8499 337.6 60.1435C337.159 60.4323 336.819 60.8111 336.577 61.2798C336.34 61.7438 336.222 62.2481 336.222 62.7926V64.0355C336.222 64.7647 336.35 65.3849 336.605 65.8963C336.866 66.4077 337.228 66.7983 337.692 67.0682C338.156 67.3333 338.698 67.4659 339.319 67.4659C339.721 67.4659 340.088 67.4091 340.419 67.2955C340.751 67.1771 341.037 67.0019 341.279 66.7699C341.52 66.5379 341.705 66.2514 341.833 65.9105L343.843 66.2727C343.682 66.8646 343.393 67.383 342.976 67.8281C342.564 68.2685 342.046 68.6117 341.421 68.858C340.801 69.0994 340.093 69.2202 339.297 69.2202Z" fill="white"/>
</g>
<defs>
<filter id="filter0_d_22_380" x="0.524376" y="0.0112572" width="494.951" height="200.951" filterUnits="userSpaceOnUse" color-interpolation-filters="sRGB">
<feFlood flood-opacity="0" result="BackgroundImageFix"/>
<feColorMatrix in="SourceAlpha" type="matrix" values="0 0 0 0 0 0 0 0 0 0 0 0 0 0 0 0 0 0 127 0" result="hardAlpha"/>
<feOffset dy="38.4869"/>
<feGaussianBlur stdDeviation="35.7378"/>
<feColorMatrix type="matrix" values="0 0 0 0 0 0 0 0 0 0 0 0 0 0 0 0 0 0 0.07 0"/>
<feBlend mode="normal" in2="BackgroundImageFix" result="effect1_dropShadow_22_380"/>
<feBlend mode="normal" in="SourceGraphic" in2="effect1_dropShadow_22_380" result="shape"/>
</filter>
</defs>
</svg>
