<svg width="390" height="201" viewBox="0 0 390 201" fill="none" xmlns="http://www.w3.org/2000/svg">
<g filter="url(#filter0_d_7_65)">
<rect x="20" y="33" width="352" height="58" rx="20.9968" fill="white"/>
<rect width="32" height="18" transform="translate(47 34)" fill="white"/>
<path fill-rule="evenodd" clip-rule="evenodd" d="M78.4796 61.8064C78.4796 60.8492 78.3969 59.9288 78.2433 59.0451H65.9998V64.2671H72.9961C72.6947 65.9545 71.7788 67.3842 70.402 68.3415V71.7287H74.6033C77.0615 69.3785 78.4796 65.9177 78.4796 61.8064Z" fill="#4285F4"/>
<path fill-rule="evenodd" clip-rule="evenodd" d="M65.9997 74.9991C69.5096 74.9991 72.4523 73.7903 74.6032 71.7285L70.4019 68.3413C69.2378 69.1513 67.7487 69.6299 65.9997 69.6299C62.6138 69.6299 59.7479 67.2552 58.7257 64.0644H54.3826V67.562C56.5216 71.9739 60.9179 74.9991 65.9997 74.9991Z" fill="#34A853"/>
<path fill-rule="evenodd" clip-rule="evenodd" d="M58.7258 64.0647C58.4658 63.2548 58.3181 62.3896 58.3181 61.4998C58.3181 60.6101 58.4658 59.7448 58.7258 58.9349V55.4372H54.3827C53.5023 57.2597 53 59.3214 53 61.4998C53 63.6782 53.5023 65.7399 54.3827 67.5624L58.7258 64.0647Z" fill="#FBBC05"/>
<path fill-rule="evenodd" clip-rule="evenodd" d="M65.9997 53.3692C67.9083 53.3692 69.6219 54.0503 70.9691 55.388L74.6977 51.516C72.4464 49.3377 69.5037 48 65.9997 48C60.9179 48 56.5216 51.0252 54.3826 55.4371L58.7257 58.9347C59.7479 55.7439 62.6138 53.3692 65.9997 53.3692Z" fill="#EA4335"/>
<path d="M119.111 65.3711H121.553C121.475 66.3021 121.214 67.1322 120.771 67.8613C120.329 68.584 119.707 69.1536 118.906 69.5703C118.105 69.987 117.132 70.1953 115.986 70.1953C115.107 70.1953 114.316 70.0391 113.613 69.7266C112.91 69.4076 112.308 68.9583 111.807 68.3789C111.305 67.793 110.921 67.0866 110.654 66.2598C110.394 65.4329 110.264 64.5085 110.264 63.4863V62.3047C110.264 61.2826 110.397 60.3581 110.664 59.5312C110.938 58.7044 111.328 57.998 111.836 57.4121C112.344 56.8197 112.952 56.3672 113.662 56.0547C114.378 55.7422 115.182 55.5859 116.074 55.5859C117.207 55.5859 118.164 55.7943 118.945 56.2109C119.727 56.6276 120.332 57.2038 120.762 57.9395C121.198 58.6751 121.465 59.5182 121.562 60.4688H119.121C119.056 59.8568 118.913 59.3327 118.691 58.8965C118.477 58.4603 118.158 58.1283 117.734 57.9004C117.311 57.666 116.758 57.5488 116.074 57.5488C115.514 57.5488 115.026 57.653 114.609 57.8613C114.193 58.0697 113.844 58.3757 113.564 58.7793C113.285 59.1829 113.073 59.681 112.93 60.2734C112.793 60.8594 112.725 61.5299 112.725 62.2852V63.4863C112.725 64.2025 112.786 64.8535 112.91 65.4395C113.04 66.0189 113.236 66.5169 113.496 66.9336C113.763 67.3503 114.102 67.6725 114.512 67.9004C114.922 68.1283 115.413 68.2422 115.986 68.2422C116.683 68.2422 117.246 68.1315 117.676 67.9102C118.112 67.6888 118.441 67.3665 118.662 66.9434C118.89 66.5137 119.04 65.9896 119.111 65.3711ZM123.096 64.834V64.6094C123.096 63.8477 123.206 63.1413 123.428 62.4902C123.649 61.8327 123.968 61.263 124.385 60.7812C124.808 60.293 125.322 59.9154 125.928 59.6484C126.54 59.375 127.23 59.2383 127.998 59.2383C128.773 59.2383 129.463 59.375 130.068 59.6484C130.68 59.9154 131.198 60.293 131.621 60.7812C132.044 61.263 132.367 61.8327 132.588 62.4902C132.809 63.1413 132.92 63.8477 132.92 64.6094V64.834C132.92 65.5957 132.809 66.3021 132.588 66.9531C132.367 67.6042 132.044 68.1738 131.621 68.6621C131.198 69.1439 130.684 69.5215 130.078 69.7949C129.473 70.0618 128.786 70.1953 128.018 70.1953C127.243 70.1953 126.549 70.0618 125.938 69.7949C125.332 69.5215 124.818 69.1439 124.395 68.6621C123.971 68.1738 123.649 67.6042 123.428 66.9531C123.206 66.3021 123.096 65.5957 123.096 64.834ZM125.449 64.6094V64.834C125.449 65.3092 125.498 65.7585 125.596 66.1816C125.693 66.6048 125.846 66.9759 126.055 67.2949C126.263 67.6139 126.53 67.8646 126.855 68.0469C127.181 68.2292 127.568 68.3203 128.018 68.3203C128.454 68.3203 128.831 68.2292 129.15 68.0469C129.476 67.8646 129.743 67.6139 129.951 67.2949C130.16 66.9759 130.312 66.6048 130.41 66.1816C130.514 65.7585 130.566 65.3092 130.566 64.834V64.6094C130.566 64.1406 130.514 63.6979 130.41 63.2812C130.312 62.8581 130.156 62.4837 129.941 62.1582C129.733 61.8327 129.466 61.5788 129.141 61.3965C128.822 61.2077 128.441 61.1133 127.998 61.1133C127.555 61.1133 127.171 61.2077 126.846 61.3965C126.527 61.5788 126.263 61.8327 126.055 62.1582C125.846 62.4837 125.693 62.8581 125.596 63.2812C125.498 63.6979 125.449 64.1406 125.449 64.6094ZM137.227 61.6895V70H134.873V59.4336H137.09L137.227 61.6895ZM136.807 64.3262L136.045 64.3164C136.051 63.5677 136.156 62.8809 136.357 62.2559C136.566 61.6309 136.852 61.0938 137.217 60.6445C137.588 60.1953 138.031 59.8503 138.545 59.6094C139.059 59.362 139.632 59.2383 140.264 59.2383C140.771 59.2383 141.23 59.3099 141.641 59.4531C142.057 59.5898 142.412 59.8145 142.705 60.127C143.005 60.4395 143.232 60.8464 143.389 61.3477C143.545 61.8424 143.623 62.4512 143.623 63.1738V70H141.26V63.1641C141.26 62.6562 141.185 62.2559 141.035 61.9629C140.892 61.6634 140.68 61.4518 140.4 61.3281C140.127 61.1979 139.785 61.1328 139.375 61.1328C138.971 61.1328 138.61 61.2174 138.291 61.3867C137.972 61.556 137.702 61.7871 137.48 62.0801C137.266 62.373 137.1 62.7116 136.982 63.0957C136.865 63.4798 136.807 63.89 136.807 64.3262ZM150.869 59.4336V61.1523H144.912V59.4336H150.869ZM146.631 56.8457H148.984V67.0801C148.984 67.4056 149.03 67.6562 149.121 67.832C149.219 68.0013 149.352 68.1152 149.521 68.1738C149.691 68.2324 149.889 68.2617 150.117 68.2617C150.28 68.2617 150.436 68.252 150.586 68.2324C150.736 68.2129 150.856 68.1934 150.947 68.1738L150.957 69.9707C150.762 70.0293 150.534 70.0814 150.273 70.127C150.02 70.1725 149.727 70.1953 149.395 70.1953C148.854 70.1953 148.376 70.1009 147.959 69.9121C147.542 69.7168 147.217 69.401 146.982 68.9648C146.748 68.5286 146.631 67.9492 146.631 67.2266V56.8457ZM155.205 59.4336V70H152.842V59.4336H155.205ZM152.686 56.6602C152.686 56.3021 152.803 56.0059 153.037 55.7715C153.278 55.5306 153.61 55.4102 154.033 55.4102C154.45 55.4102 154.779 55.5306 155.02 55.7715C155.26 56.0059 155.381 56.3021 155.381 56.6602C155.381 57.0117 155.26 57.3047 155.02 57.5391C154.779 57.7734 154.45 57.8906 154.033 57.8906C153.61 57.8906 153.278 57.7734 153.037 57.5391C152.803 57.3047 152.686 57.0117 152.686 56.6602ZM160.117 61.6895V70H157.764V59.4336H159.98L160.117 61.6895ZM159.697 64.3262L158.936 64.3164C158.942 63.5677 159.046 62.8809 159.248 62.2559C159.456 61.6309 159.743 61.0938 160.107 60.6445C160.479 60.1953 160.921 59.8503 161.436 59.6094C161.95 59.362 162.523 59.2383 163.154 59.2383C163.662 59.2383 164.121 59.3099 164.531 59.4531C164.948 59.5898 165.303 59.8145 165.596 60.127C165.895 60.4395 166.123 60.8464 166.279 61.3477C166.436 61.8424 166.514 62.4512 166.514 63.1738V70H164.15V63.1641C164.15 62.6562 164.076 62.2559 163.926 61.9629C163.783 61.6634 163.571 61.4518 163.291 61.3281C163.018 61.1979 162.676 61.1328 162.266 61.1328C161.862 61.1328 161.501 61.2174 161.182 61.3867C160.863 61.556 160.592 61.7871 160.371 62.0801C160.156 62.373 159.99 62.7116 159.873 63.0957C159.756 63.4798 159.697 63.89 159.697 64.3262ZM175.273 67.5098V59.4336H177.637V70H175.41L175.273 67.5098ZM175.605 65.3125L176.396 65.293C176.396 66.0026 176.318 66.6569 176.162 67.2559C176.006 67.8483 175.765 68.3659 175.439 68.8086C175.114 69.2448 174.697 69.5866 174.189 69.834C173.682 70.0749 173.073 70.1953 172.363 70.1953C171.849 70.1953 171.377 70.1204 170.947 69.9707C170.518 69.821 170.146 69.5898 169.834 69.2773C169.528 68.9648 169.29 68.5579 169.121 68.0566C168.952 67.5553 168.867 66.9564 168.867 66.2598V59.4336H171.221V66.2793C171.221 66.6634 171.266 66.9857 171.357 67.2461C171.449 67.5 171.572 67.7051 171.729 67.8613C171.885 68.0176 172.067 68.1283 172.275 68.1934C172.484 68.2585 172.705 68.291 172.939 68.291C173.61 68.291 174.137 68.1608 174.521 67.9004C174.912 67.6335 175.189 67.2754 175.352 66.8262C175.521 66.377 175.605 65.8724 175.605 65.3125ZM184.707 70.1953C183.926 70.1953 183.219 70.0684 182.588 69.8145C181.963 69.554 181.429 69.1927 180.986 68.7305C180.55 68.2682 180.215 67.7246 179.98 67.0996C179.746 66.4746 179.629 65.8008 179.629 65.0781V64.6875C179.629 63.8607 179.749 63.112 179.99 62.4414C180.231 61.7708 180.566 61.1979 180.996 60.7227C181.426 60.2409 181.934 59.873 182.52 59.6191C183.105 59.3652 183.74 59.2383 184.424 59.2383C185.179 59.2383 185.84 59.3652 186.406 59.6191C186.973 59.873 187.441 60.2311 187.812 60.6934C188.19 61.1491 188.47 61.6927 188.652 62.3242C188.841 62.9557 188.936 63.6523 188.936 64.4141V65.4199H180.771V63.7305H186.611V63.5449C186.598 63.1217 186.514 62.7246 186.357 62.3535C186.208 61.9824 185.977 61.6829 185.664 61.4551C185.352 61.2272 184.935 61.1133 184.414 61.1133C184.023 61.1133 183.675 61.1979 183.369 61.3672C183.07 61.5299 182.819 61.7676 182.617 62.0801C182.415 62.3926 182.259 62.7702 182.148 63.2129C182.044 63.6491 181.992 64.1406 181.992 64.6875V65.0781C181.992 65.5404 182.054 65.9701 182.178 66.3672C182.308 66.7578 182.497 67.0996 182.744 67.3926C182.992 67.6855 183.291 67.9167 183.643 68.0859C183.994 68.2487 184.395 68.3301 184.844 68.3301C185.41 68.3301 185.915 68.2161 186.357 67.9883C186.8 67.7604 187.184 67.4382 187.51 67.0215L188.75 68.2227C188.522 68.5547 188.226 68.8737 187.861 69.1797C187.497 69.4792 187.051 69.7233 186.523 69.9121C186.003 70.1009 185.397 70.1953 184.707 70.1953ZM198.623 67.6562L201.064 59.4336H202.568L202.158 61.8945L199.697 70H198.35L198.623 67.6562ZM197.188 59.4336L199.092 67.6953L199.248 70H197.744L194.883 59.4336H197.188ZM204.854 67.5977L206.699 59.4336H208.994L206.143 70H204.639L204.854 67.5977ZM202.822 59.4336L205.234 67.5586L205.537 70H204.189L201.699 61.8848L201.289 59.4336H202.822ZM213.115 59.4336V70H210.752V59.4336H213.115ZM210.596 56.6602C210.596 56.3021 210.713 56.0059 210.947 55.7715C211.188 55.5306 211.52 55.4102 211.943 55.4102C212.36 55.4102 212.689 55.5306 212.93 55.7715C213.171 56.0059 213.291 56.3021 213.291 56.6602C213.291 57.0117 213.171 57.3047 212.93 57.5391C212.689 57.7734 212.36 57.8906 211.943 57.8906C211.52 57.8906 211.188 57.7734 210.947 57.5391C210.713 57.3047 210.596 57.0117 210.596 56.6602ZM220.537 59.4336V61.1523H214.58V59.4336H220.537ZM216.299 56.8457H218.652V67.0801C218.652 67.4056 218.698 67.6562 218.789 67.832C218.887 68.0013 219.02 68.1152 219.189 68.1738C219.359 68.2324 219.557 68.2617 219.785 68.2617C219.948 68.2617 220.104 68.252 220.254 68.2324C220.404 68.2129 220.524 68.1934 220.615 68.1738L220.625 69.9707C220.43 70.0293 220.202 70.0814 219.941 70.127C219.688 70.1725 219.395 70.1953 219.062 70.1953C218.522 70.1953 218.044 70.1009 217.627 69.9121C217.21 69.7168 216.885 69.401 216.65 68.9648C216.416 68.5286 216.299 67.9492 216.299 67.2266V56.8457ZM224.678 55V70H222.334V55H224.678ZM224.268 64.3262L223.506 64.3164C223.512 63.5872 223.613 62.9134 223.809 62.2949C224.01 61.6764 224.29 61.1393 224.648 60.6836C225.013 60.2214 225.449 59.8665 225.957 59.6191C226.465 59.3652 227.028 59.2383 227.646 59.2383C228.167 59.2383 228.636 59.3099 229.053 59.4531C229.476 59.5964 229.84 59.8275 230.146 60.1465C230.452 60.459 230.684 60.8691 230.84 61.377C231.003 61.8783 231.084 62.4902 231.084 63.2129V70H228.721V63.1934C228.721 62.6855 228.646 62.2819 228.496 61.9824C228.353 61.6829 228.141 61.4681 227.861 61.3379C227.581 61.2012 227.24 61.1328 226.836 61.1328C226.413 61.1328 226.038 61.2174 225.713 61.3867C225.394 61.556 225.127 61.7871 224.912 62.0801C224.697 62.373 224.535 62.7116 224.424 63.0957C224.32 63.4798 224.268 63.89 224.268 64.3262ZM249.6 62.7344V68.1641C249.398 68.431 249.082 68.724 248.652 69.043C248.229 69.3555 247.666 69.6257 246.963 69.8535C246.26 70.0814 245.384 70.1953 244.336 70.1953C243.444 70.1953 242.627 70.0456 241.885 69.7461C241.143 69.4401 240.501 68.9941 239.961 68.4082C239.427 67.8223 239.014 67.1094 238.721 66.2695C238.428 65.4232 238.281 64.4596 238.281 63.3789V62.3926C238.281 61.3184 238.415 60.3613 238.682 59.5215C238.955 58.6751 239.346 57.959 239.854 57.373C240.361 56.7871 240.973 56.3444 241.689 56.0449C242.412 55.7389 243.229 55.5859 244.141 55.5859C245.306 55.5859 246.27 55.7812 247.031 56.1719C247.799 56.556 248.392 57.0898 248.809 57.7734C249.225 58.457 249.489 59.2383 249.6 60.1172H247.197C247.119 59.6224 246.966 59.1797 246.738 58.7891C246.517 58.3984 246.198 58.0924 245.781 57.8711C245.371 57.6432 244.837 57.5293 244.18 57.5293C243.613 57.5293 243.115 57.6367 242.686 57.8516C242.256 58.0664 241.898 58.3822 241.611 58.7988C241.331 59.2155 241.12 59.7233 240.977 60.3223C240.833 60.9212 240.762 61.6048 240.762 62.373V63.3789C240.762 64.1602 240.843 64.8535 241.006 65.459C241.175 66.0645 241.416 66.5755 241.729 66.9922C242.048 67.4089 242.435 67.7246 242.891 67.9395C243.346 68.1478 243.861 68.252 244.434 68.252C244.993 68.252 245.452 68.2064 245.811 68.1152C246.169 68.0176 246.452 67.9036 246.66 67.7734C246.875 67.6367 247.041 67.5065 247.158 67.3828V64.5605H244.199V62.7344H249.6ZM251.631 64.834V64.6094C251.631 63.8477 251.742 63.1413 251.963 62.4902C252.184 61.8327 252.503 61.263 252.92 60.7812C253.343 60.293 253.857 59.9154 254.463 59.6484C255.075 59.375 255.765 59.2383 256.533 59.2383C257.308 59.2383 257.998 59.375 258.604 59.6484C259.215 59.9154 259.733 60.293 260.156 60.7812C260.579 61.263 260.902 61.8327 261.123 62.4902C261.344 63.1413 261.455 63.8477 261.455 64.6094V64.834C261.455 65.5957 261.344 66.3021 261.123 66.9531C260.902 67.6042 260.579 68.1738 260.156 68.6621C259.733 69.1439 259.219 69.5215 258.613 69.7949C258.008 70.0618 257.321 70.1953 256.553 70.1953C255.778 70.1953 255.085 70.0618 254.473 69.7949C253.867 69.5215 253.353 69.1439 252.93 68.6621C252.507 68.1738 252.184 67.6042 251.963 66.9531C251.742 66.3021 251.631 65.5957 251.631 64.834ZM253.984 64.6094V64.834C253.984 65.3092 254.033 65.7585 254.131 66.1816C254.229 66.6048 254.382 66.9759 254.59 67.2949C254.798 67.6139 255.065 67.8646 255.391 68.0469C255.716 68.2292 256.104 68.3203 256.553 68.3203C256.989 68.3203 257.367 68.2292 257.686 68.0469C258.011 67.8646 258.278 67.6139 258.486 67.2949C258.695 66.9759 258.848 66.6048 258.945 66.1816C259.049 65.7585 259.102 65.3092 259.102 64.834V64.6094C259.102 64.1406 259.049 63.6979 258.945 63.2812C258.848 62.8581 258.691 62.4837 258.477 62.1582C258.268 61.8327 258.001 61.5788 257.676 61.3965C257.357 61.2077 256.976 61.1133 256.533 61.1133C256.09 61.1133 255.706 61.2077 255.381 61.3965C255.062 61.5788 254.798 61.8327 254.59 62.1582C254.382 62.4837 254.229 62.8581 254.131 63.2812C254.033 63.6979 253.984 64.1406 253.984 64.6094ZM262.979 64.834V64.6094C262.979 63.8477 263.089 63.1413 263.311 62.4902C263.532 61.8327 263.851 61.263 264.268 60.7812C264.691 60.293 265.205 59.9154 265.811 59.6484C266.423 59.375 267.113 59.2383 267.881 59.2383C268.656 59.2383 269.346 59.375 269.951 59.6484C270.563 59.9154 271.081 60.293 271.504 60.7812C271.927 61.263 272.249 61.8327 272.471 62.4902C272.692 63.1413 272.803 63.8477 272.803 64.6094V64.834C272.803 65.5957 272.692 66.3021 272.471 66.9531C272.249 67.6042 271.927 68.1738 271.504 68.6621C271.081 69.1439 270.566 69.5215 269.961 69.7949C269.355 70.0618 268.669 70.1953 267.9 70.1953C267.126 70.1953 266.432 70.0618 265.82 69.7949C265.215 69.5215 264.701 69.1439 264.277 68.6621C263.854 68.1738 263.532 67.6042 263.311 66.9531C263.089 66.3021 262.979 65.5957 262.979 64.834ZM265.332 64.6094V64.834C265.332 65.3092 265.381 65.7585 265.479 66.1816C265.576 66.6048 265.729 66.9759 265.938 67.2949C266.146 67.6139 266.413 67.8646 266.738 68.0469C267.064 68.2292 267.451 68.3203 267.9 68.3203C268.337 68.3203 268.714 68.2292 269.033 68.0469C269.359 67.8646 269.626 67.6139 269.834 67.2949C270.042 66.9759 270.195 66.6048 270.293 66.1816C270.397 65.7585 270.449 65.3092 270.449 64.834V64.6094C270.449 64.1406 270.397 63.6979 270.293 63.2812C270.195 62.8581 270.039 62.4837 269.824 62.1582C269.616 61.8327 269.349 61.5788 269.023 61.3965C268.704 61.2077 268.324 61.1133 267.881 61.1133C267.438 61.1133 267.054 61.2077 266.729 61.3965C266.41 61.5788 266.146 61.8327 265.938 62.1582C265.729 62.4837 265.576 62.8581 265.479 63.2812C265.381 63.6979 265.332 64.1406 265.332 64.6094ZM281.543 59.4336H283.682V69.707C283.682 70.6576 283.48 71.4648 283.076 72.1289C282.673 72.793 282.109 73.2975 281.387 73.6426C280.664 73.9941 279.827 74.1699 278.877 74.1699C278.473 74.1699 278.024 74.1113 277.529 73.9941C277.041 73.877 276.566 73.6882 276.104 73.4277C275.648 73.1738 275.267 72.8385 274.961 72.4219L276.064 71.0352C276.442 71.4844 276.859 71.8132 277.314 72.0215C277.77 72.2298 278.249 72.334 278.75 72.334C279.29 72.334 279.749 72.2331 280.127 72.0312C280.511 71.8359 280.807 71.5462 281.016 71.1621C281.224 70.778 281.328 70.3092 281.328 69.7559V61.8262L281.543 59.4336ZM274.365 64.834V64.6289C274.365 63.8281 274.463 63.099 274.658 62.4414C274.854 61.7773 275.133 61.2077 275.498 60.7324C275.863 60.2507 276.305 59.8828 276.826 59.6289C277.347 59.3685 277.936 59.2383 278.594 59.2383C279.277 59.2383 279.86 59.362 280.342 59.6094C280.83 59.8568 281.237 60.2116 281.562 60.6738C281.888 61.1296 282.142 61.6764 282.324 62.3145C282.513 62.946 282.653 63.6491 282.744 64.4238V65.0781C282.66 65.8333 282.516 66.5234 282.314 67.1484C282.113 67.7734 281.846 68.3138 281.514 68.7695C281.182 69.2253 280.771 69.5768 280.283 69.8242C279.801 70.0716 279.232 70.1953 278.574 70.1953C277.93 70.1953 277.347 70.0618 276.826 69.7949C276.312 69.528 275.869 69.1536 275.498 68.6719C275.133 68.1901 274.854 67.6237 274.658 66.9727C274.463 66.3151 274.365 65.6022 274.365 64.834ZM276.719 64.6289V64.834C276.719 65.3158 276.764 65.765 276.855 66.1816C276.953 66.5983 277.1 66.9661 277.295 67.2852C277.497 67.5977 277.751 67.8451 278.057 68.0273C278.369 68.2031 278.737 68.291 279.16 68.291C279.714 68.291 280.166 68.1738 280.518 67.9395C280.876 67.7051 281.149 67.3893 281.338 66.9922C281.533 66.5885 281.67 66.1393 281.748 65.6445V63.877C281.709 63.4928 281.628 63.1348 281.504 62.8027C281.387 62.4707 281.227 62.181 281.025 61.9336C280.824 61.6797 280.57 61.4844 280.264 61.3477C279.958 61.2044 279.596 61.1328 279.18 61.1328C278.757 61.1328 278.389 61.224 278.076 61.4062C277.764 61.5885 277.507 61.8392 277.305 62.1582C277.109 62.4772 276.963 62.8483 276.865 63.2715C276.768 63.6947 276.719 64.1471 276.719 64.6289ZM288.643 55V70H286.279V55H288.643ZM295.879 70.1953C295.098 70.1953 294.391 70.0684 293.76 69.8145C293.135 69.554 292.601 69.1927 292.158 68.7305C291.722 68.2682 291.387 67.7246 291.152 67.0996C290.918 66.4746 290.801 65.8008 290.801 65.0781V64.6875C290.801 63.8607 290.921 63.112 291.162 62.4414C291.403 61.7708 291.738 61.1979 292.168 60.7227C292.598 60.2409 293.105 59.873 293.691 59.6191C294.277 59.3652 294.912 59.2383 295.596 59.2383C296.351 59.2383 297.012 59.3652 297.578 59.6191C298.145 59.873 298.613 60.2311 298.984 60.6934C299.362 61.1491 299.642 61.6927 299.824 62.3242C300.013 62.9557 300.107 63.6523 300.107 64.4141V65.4199H291.943V63.7305H297.783V63.5449C297.77 63.1217 297.686 62.7246 297.529 62.3535C297.38 61.9824 297.148 61.6829 296.836 61.4551C296.523 61.2272 296.107 61.1133 295.586 61.1133C295.195 61.1133 294.847 61.1979 294.541 61.3672C294.242 61.5299 293.991 61.7676 293.789 62.0801C293.587 62.3926 293.431 62.7702 293.32 63.2129C293.216 63.6491 293.164 64.1406 293.164 64.6875V65.0781C293.164 65.5404 293.226 65.9701 293.35 66.3672C293.48 66.7578 293.669 67.0996 293.916 67.3926C294.163 67.6855 294.463 67.9167 294.814 68.0859C295.166 68.2487 295.566 68.3301 296.016 68.3301C296.582 68.3301 297.087 68.2161 297.529 67.9883C297.972 67.7604 298.356 67.4382 298.682 67.0215L299.922 68.2227C299.694 68.5547 299.398 68.8737 299.033 69.1797C298.669 69.4792 298.223 69.7233 297.695 69.9121C297.174 70.1009 296.569 70.1953 295.879 70.1953Z" fill="black" fill-opacity="0.54"/>
</g>
<defs>
<filter id="filter0_d_7_65" x="-51.4756" y="0.0112572" width="494.951" height="200.951" filterUnits="userSpaceOnUse" color-interpolation-filters="sRGB">
<feFlood flood-opacity="0" result="BackgroundImageFix"/>
<feColorMatrix in="SourceAlpha" type="matrix" values="0 0 0 0 0 0 0 0 0 0 0 0 0 0 0 0 0 0 127 0" result="hardAlpha"/>
<feOffset dy="38.4869"/>
<feGaussianBlur stdDeviation="35.7378"/>
<feColorMatrix type="matrix" values="0 0 0 0 0 0 0 0 0 0 0 0 0 0 0 0 0 0 0.07 0"/>
<feBlend mode="normal" in2="BackgroundImageFix" result="effect1_dropShadow_7_65"/>
<feBlend mode="normal" in="SourceGraphic" in2="effect1_dropShadow_7_65" result="shape"/>
</filter>
</defs>
</svg>
